<!DOCTYPE svg PUBLIC "-//W3C//DTD SVG 1.1//EN" "http://www.w3.org/Graphics/SVG/1.1/DTD/svg11.dtd">
<!-- Uploaded to: SVG Repo, www.svgrepo.com, Transformed by: SVG Repo Mixer Tools -->
<svg height="800px" width="800px" version="1.1" id="Layer_1" xmlns="http://www.w3.org/2000/svg" xmlns:xlink="http://www.w3.org/1999/xlink" viewBox="0 0 280.027 280.027" xml:space="preserve" fill="#000000">
<g id="SVGRepo_bgCarrier" stroke-width="0"/>
<g id="SVGRepo_tracerCarrier" stroke-linecap="round" stroke-linejoin="round"/>
<g id="SVGRepo_iconCarrier"> <g> <path style="fill:#D6A04C;" d="M245.023,0v17.502c0,4.83-3.912,8.751-8.751,8.751h-8.751c-4.839,0-8.751-3.92-8.751-8.751V0H61.255 v17.502c0,4.83-3.912,8.751-8.751,8.751h-8.751c-4.83,0-8.751-3.92-8.751-8.751V0H17.501v280.027h17.502v-17.502 c0-4.83,3.92-8.751,8.751-8.751h8.751c4.839,0,8.751,3.92,8.751,8.751v17.502h157.515v-17.502c0-4.83,3.912-8.751,8.751-8.751 h8.751c4.839,0,8.751,3.92,8.751,8.751v17.502h17.502V0H245.023z M61.255,227.522c0,4.839-3.912,8.751-8.751,8.751h-8.751 c-4.83,0-8.751-3.912-8.751-8.751V210.02c0-4.839,3.92-8.751,8.751-8.751h8.751c4.839,0,8.751,3.912,8.751,8.751V227.522z M61.255,175.017c0,4.839-3.912,8.751-8.751,8.751h-8.751c-4.83,0-8.751-3.912-8.751-8.751v-17.502c0-4.83,3.92-8.751,8.751-8.751 h8.751c4.839,0,8.751,3.92,8.751,8.751V175.017z M61.255,122.512c0,4.839-3.912,8.751-8.751,8.751h-8.751 c-4.83,0-8.751-3.912-8.751-8.751V105.01c0-4.83,3.92-8.751,8.751-8.751h8.751c4.839,0,8.751,3.92,8.751,8.751V122.512z M61.255,70.007c0,4.839-3.912,8.751-8.751,8.751h-8.751c-4.83,0-8.751-3.912-8.751-8.751V52.505c0-4.83,3.92-8.751,8.751-8.751 h8.751c4.839,0,8.751,3.92,8.751,8.751V70.007z M245.023,227.522c0,4.839-3.912,8.751-8.751,8.751h-8.751 c-4.839,0-8.751-3.912-8.751-8.751V210.02c0-4.839,3.912-8.751,8.751-8.751h8.751c4.839,0,8.751,3.912,8.751,8.751V227.522z M245.023,175.017c0,4.839-3.912,8.751-8.751,8.751h-8.751c-4.839,0-8.751-3.912-8.751-8.751v-17.502 c0-4.83,3.912-8.751,8.751-8.751h8.751c4.839,0,8.751,3.92,8.751,8.751V175.017z M245.023,122.512c0,4.839-3.912,8.751-8.751,8.751 h-8.751c-4.839,0-8.751-3.912-8.751-8.751V105.01c0-4.83,3.912-8.751,8.751-8.751h8.751c4.839,0,8.751,3.92,8.751,8.751V122.512z M245.023,70.007c0,4.839-3.912,8.751-8.751,8.751h-8.751c-4.839,0-8.751-3.912-8.751-8.751V52.505c0-4.83,3.912-8.751,8.751-8.751 h8.751c4.839,0,8.751,3.92,8.751,8.751V70.007z"/> <path style="fill:#2B1B0E;" d="M192.518,70.016H87.508c-4.83,0-8.751,3.92-8.751,8.751v122.512c0,4.848,3.92,8.751,8.751,8.751 h105.01c4.839,0,8.751-3.903,8.751-8.751V78.758C201.269,73.936,197.357,70.016,192.518,70.016z M78.757,0v43.754 c0,4.839,3.92,8.751,8.751,8.751h105.01c4.839,0,8.751-3.912,8.751-8.751V0H78.757z M192.518,227.522H87.508 c-4.83,0-8.751,3.92-8.751,8.751v43.754h122.512v-43.754C201.269,231.451,197.357,227.522,192.518,227.522z"/> </g> </g>
</svg>